<?xml version="1.0" encoding="utf-8"?>
<!-- Generator: Adobe Illustrator 18.0.0, SVG Export Plug-In . SVG Version: 6.00 Build 0)  -->
<!DOCTYPE svg PUBLIC "-//W3C//DTD SVG 1.1//EN" "http://www.w3.org/Graphics/SVG/1.1/DTD/svg11.dtd">
<svg version="1.1" id="Layer_1" xmlns="http://www.w3.org/2000/svg" xmlns:xlink="http://www.w3.org/1999/xlink" x="0px" y="0px"
	 viewBox="0 0 113.1 114.9" enable-background="new 0 0 113.1 114.9" xml:space="preserve">
<path fill-rule="evenodd" clip-rule="evenodd" fill="#D04F80" d="M95.4,71.9c-10.7,7.7-23.1,13.8-35,20.1c-2.3,1.2-6.1,5-8.5,2.8
	c-3.4-3.1-6.5-6.6-10.1-9.6C34.2,79,25.1,73.6,18.3,66.5c-9.9-10.4-18.5-32.3-4-42.7c6.6-4.7,14.4-5.5,22.2-4.1
	c9.5,1.6,13.9,6.3,19.9,13.6c10.1-13.2,33.8-22.9,46.2-7.1c5.2,6.6,6.9,16.4,4.2,24.3C104.2,58.2,97.4,64,95.4,71.9 M81.6,21.2
	c1.2,10.8-0.9,22.1-1.4,32.9C80,60.7,76,73.6,79,79.5c3.3,0.1,3.3-28.6,3.5-32c0.4-5.6,0.2-11.3,0.8-16.8c0.4-3.3,0.5-6.7,0.6-10
	C82.9,20.9,82.2,19.7,81.6,21.2 M89.2,21.2c-1.3,7.8-0.4,16.9-0.7,25c-0.3,9.1-0.9,18.2-1.4,27.3C91.4,74.4,92.4,21.2,89.2,21.2
	 M28.2,63.3C28.5,49.3,31,36,30.8,22c-1.6,0-3.5-0.3-5,0.3c-0.5,3.7-1.1,7.5-1.5,11.2c-0.4,3.9-3.7,23.3-0.1,25.7
	c0.9-5.1,0.2-10.7,1-15.7c0.4-5-1.3-15.8,2.6-19.6c3,2.1-0.3,21.5-0.5,25.2c-0.3,5-0.9,10-0.3,14.9c0.6,5-2.4,1.6-4.4,2
	c1.6,2,3.5,3.7,5.8,5C29.4,68.5,28.2,65.8,28.2,63.3 M34.8,21.7c-3.6,1.4-2.6,25.5-3,29.5c-0.7,8.4-4.9,22,5.1,25.9
	c1.1-10.4,2.4-20.9,2.6-31.4c0-2.8,2.7-21.5,0.3-22.5c-4,16.4-2.7,34.1-5.2,50.8c-4,0.4-0.1-21.9,0.2-25
	C35,45.5,37.6,21.2,34.8,21.7 M86.6,23.3c0.2-0.2,0.7-1.8-0.3-1.6C85.9,22.1,86.2,22.9,86.6,23.3z M75.8,22.8
	c0.6,10.4-2.6,20.8-0.8,31.1c1.8-6.5,2.3-13.3,2.4-20c0-2.9,0-5.8-0.1-8.7C77.3,26.4,76.5,20,75.8,22.8 M92.6,22.8
	c0,8,0.4,16.1,0.2,24.1c-0.1,3.5-3.4,20.3,0.1,22.2C96.2,64.8,95.9,22.8,92.6,22.8 M18.8,62.5c0.7,1.3,1.7,2.2,3.1,2.6
	c1.7-5.1-0.9-14-0.7-19.5c0.1-2.7,2.7-21.5,1-22.3C18.4,35.9,19.8,49.5,18.8,62.5 M73.5,23.3c0,7.6-1.7,16.6-2,24.6
	c-0.3,11-2.3,21.9-2.2,32.9C70.7,75.1,74,23.3,73.5,23.3 M17.5,31.4c0.9-0.8,1.9-6.3,0.8-6.8C16.7,26.2,17.9,29.4,17.5,31.4
	 M44.4,24.6c-4.3,1.6-2.7,23.7-3,27.7c-0.2,3.1-3.8,28.2-0.7,28.3C41.6,74.9,47.4,24.6,44.4,24.6 M96.5,25.4
	c1.4,12.8-1.1,25.7,0,38.5c3.1-4.5,2.6-14.9,2.2-20.1c-0.4-4.3,0.2-8.6,0.3-12.8c0.1-2,0-4.1-0.3-6.1C98,24.7,96.3,24.1,96.5,25.4
	 M63.8,29.8c0,9,0.4,18.1-0.1,27.1c-0.5,8.9-2.2,18.7-1,27.6c1.8-8.6,1.9-17.5,2.1-26.2c0.2-9.3,1.9-19.2,1.3-28.4
	c-0.2-2.8,2.4-2.5,2.4,0c-0.1,4-0.9,8.2-1.1,12.2c-0.2,3.9-1.1,8.8,0.3,12.6c-0.6,1.4-1.4,8.6-0.3,9.9c1.8-13,1.8-26.2,2.4-39.2
	C67.9,25.4,64.6,28.1,63.8,29.8 M83.2,76.6c4.4-1.8,4.3-50.2,3.1-50.5C84.5,42.9,83.9,59.8,83.2,76.6 M13,29.3
	c1.2,2.2-0.2,5.8,1.8,7.6c-0.3-2.9,2-6.9-0.3-9.4C13.6,27.7,13.1,28.3,13,29.3 M47.6,47.1c0.9-2.7,3.2-19.6,0-19.6
	C47.1,34,46.9,40.6,47.6,47.1 M100.2,57.8c3.8-2,3.4-28.8,1.3-28.8C99.9,38.6,101.6,48.3,100.2,57.8 M10.9,48.7
	c0.6-1.7,2-17.2,0.5-17C9.4,36.4,7.6,44.1,10.9,48.7 M49.1,87.6c0.2,0.2,2.4,2.9,2.9,2.1c0.1-10.5-0.5-21.1-0.1-31.6
	c0.1-3.2,3.6-25.7-0.2-25.7C50.4,50.8,48.8,69.2,49.1,87.6 M59.1,35.8c0,5.6,1.3,12,1,18.1c-0.3,6.9-0.9,13.8,0.1,20.7
	c1.7-13.8,1.2-27.8,1-41.6C59.5,32.9,59.6,34.8,59.1,35.8 M16.7,52.6c0.4-1.9,0.7-17.6,0.5-17.5C16.6,40.9,15.5,46.8,16.7,52.6
	 M57,68c0.5-2.8,1-29.9,0.5-29.8c-0.4,2.7-2.3,7-2.6,10.6c-0.3,4.5-1.1,9.1-1,13.7c0.2,5.1,0.3,10.2,0.4,15.4
	c0.1,3.9-1.3,10.9,0.8,14.3C59.1,85.4,56.7,75.4,57,68 M105.1,48.4c0.1-1.6,1.4-4.9-0.3-5.8C104.6,44,104.1,47.5,105.1,48.4z
	 M43.4,82.7c0.9,1,2.1,1.7,3.4,2.1c0.2-0.9-2.8-1.5-0.6-2.5c1.6-0.7,0.6-9.3,0.6-10.9c0.1-2.1,1.4-22.8,0.5-22.7
	C45.3,59.9,43.7,71.2,43.4,82.7 M14.1,55.7c0.3-2.2,0-4.4,0-6.5C11.8,49.2,12.4,54.7,14.1,55.7 M74.3,63.6c-0.2-2.3,1.5-5.2,0.3-7.3
	C73.9,58,73.5,62.1,74.3,63.6z M24,60.4C24,62.4,24.6,59.6,24,60.4L24,60.4z M76.1,68.8c1.3-1.2,1.1-5.2,0.8-7.1
	C76.1,63.6,76.2,66.3,76.1,68.8z M73.7,64.9c0.7,0.4,0.7-1.1,0.3-1C73.9,64.2,73.6,64.3,73.7,64.9z M67.5,69.8
	c0-0.8,0.9-3.1-0.3-3.4C67,67.3,66,69.6,67.5,69.8z M76.1,73.5c0.3-0.3,0.5-1.9,0-2.1C75.8,71.7,75.5,73.3,76.1,73.5z M72.9,75.6
	c1,0,0.8-1.2,0.8-2.1C72.8,73.5,73,74.7,72.9,75.6z M59.9,82.4c-0.1-1.8,0.9-5.5-0.3-7.3C59.7,77.1,58.7,80.5,59.9,82.4z M66.7,78
	c0.2-0.6,0.4-1.7-0.5-1.8C65.9,76.8,65.6,77.9,66.7,78z M66.1,87.1c0.4-1.9,0.6-6.1,0-8.1C66.2,81.4,64.3,86.2,66.1,87.1z M75,82.1
	c0.7,0,0.9-2.7,0-2.6C74.7,79.9,73.9,82,75,82.1z M72.4,83.7c1.6-2,0.7-1.3,0-3.9C72.3,80.8,71.1,82.9,72.4,83.7 M68.8,84.8
	c0.3-1,0.9-2.6,0-3.4C68.5,82.1,67.6,84.2,68.8,84.8z M59.3,84.5c0.7,0.2,0.9-0.2,0.5-1C59.2,83.3,59,83.6,59.3,84.5 M61.7,88.9
	c1.3,0.2,1.5-2.3,0.3-2.4C62.1,87.6,60.9,88.1,61.7,88.9z"/>
</svg>
